<svg width="52" height="51" viewBox="0 0 52 51" fill="none" xmlns="http://www.w3.org/2000/svg">
<path d="M17.4005 38.2325C17.0254 38.2325 16.6657 38.0835 16.4005 37.8183C16.1352 37.5531 15.9862 37.1934 15.9862 36.8183L15.7741 16.0856C15.7571 15.6646 15.8234 15.2445 15.9694 14.8492C16.1153 14.454 16.3379 14.0916 16.6245 13.7827C16.911 13.4738 17.2557 13.2247 17.6389 13.0495C18.0221 12.8744 18.4361 12.7767 18.8571 12.7621L32.4197 12.6914C32.8413 12.6988 33.2573 12.7891 33.644 12.9573C34.0307 13.1255 34.3804 13.3682 34.6733 13.6715C34.9662 13.9749 35.1964 14.333 35.3508 14.7254C35.5053 15.1177 35.5809 15.5367 35.5734 15.9583L35.7714 36.691C35.7738 36.9388 35.7111 37.1829 35.5895 37.3989C35.4679 37.6148 35.2916 37.795 35.0784 37.9214C34.8634 38.0455 34.6196 38.1109 34.3713 38.1109C34.1231 38.1109 33.8792 38.0455 33.6642 37.9214L25.603 33.4524L18.1217 38.0204C17.9002 38.1441 17.6537 38.2166 17.4005 38.2325ZM25.5465 30.3835C25.7922 30.384 26.0344 30.4421 26.2536 30.5532L32.9147 34.2444L32.7449 15.93C32.7449 15.6472 32.5611 15.4492 32.448 15.4633L18.8713 15.5906C18.7581 15.5906 18.6026 15.7744 18.6026 16.0573L18.7723 34.301L24.8252 30.5815C25.045 30.4556 25.2932 30.3875 25.5465 30.3835Z" fill="#004B40"/>
<circle cx="25.772" cy="25.4614" r="24.9009" stroke="#004B40"/>
</svg>
