<svg width="13" height="14" viewBox="0 0 13 14" fill="none" xmlns="http://www.w3.org/2000/svg">
<path d="M11.0495 12.3333H1.71615V4.99992H11.0495M9.04948 0.333252V1.66659H3.71615V0.333252H2.38281V1.66659H1.71615C0.976146 1.66659 0.382812 2.25992 0.382812 2.99992V12.3333C0.382813 12.6869 0.523288 13.026 0.773337 13.2761C1.02339 13.5261 1.36252 13.6666 1.71615 13.6666H11.0495C11.4031 13.6666 11.7422 13.5261 11.9923 13.2761C12.2423 13.026 12.3828 12.6869 12.3828 12.3333V2.99992C12.3828 2.6463 12.2423 2.30716 11.9923 2.05711C11.7422 1.80706 11.4031 1.66659 11.0495 1.66659H10.3828V0.333252M9.71615 7.66658H6.38281V10.9999H9.71615V7.66658Z" fill="#F5CD87"/>
</svg>
