<svg width="76" height="75" viewBox="0 0 76 75" fill="none" xmlns="http://www.w3.org/2000/svg">
<path d="M37.8281 0.989258C57.8848 0.989266 74.1436 17.248 74.1436 37.3047C74.1435 57.3613 57.8848 73.6201 37.8281 73.6201C17.7715 73.6201 1.5127 57.3613 1.5127 37.3047C1.5127 17.248 17.7715 0.989258 37.8281 0.989258Z" stroke="#004B40" stroke-width="1.97778"/>
<path d="M41.3184 59.7774V39.3089H48.2236L49.2501 31.2949H41.3184V26.1902C41.3184 23.8777 41.9627 22.2943 45.2817 22.2943H49.4873V15.1494C47.4411 14.9301 45.3842 14.8242 43.3263 14.8322C37.2227 14.8322 33.0321 18.5583 33.0321 25.3986V31.2799H26.1719V39.2939H33.0471V59.7774H41.3184Z" fill="#004B40"/>
</svg>
