<svg width="76" height="75" viewBox="0 0 76 75" fill="none" xmlns="http://www.w3.org/2000/svg">
<circle cx="38.0859" cy="37.3047" r="36.3158" stroke="#004B40" stroke-width="1.97778"/>
<path d="M57.2073 29.4092C57.1858 27.7905 56.8828 26.1879 56.3118 24.6731C55.8167 23.3953 55.0606 22.2349 54.0916 21.2659C53.1226 20.297 51.9622 19.5408 50.6845 19.0457C49.1891 18.4844 47.6093 18.1809 46.0124 18.1481C43.9564 18.0562 43.3045 18.0305 38.0854 18.0305C32.8662 18.0305 32.1973 18.0305 30.1562 18.1481C28.56 18.1811 26.981 18.4846 25.4863 19.0457C24.2084 19.5405 23.0478 20.2965 22.0788 21.2655C21.1098 22.2345 20.3537 23.3951 19.8589 24.6731C19.2965 26.1673 18.9936 27.7467 18.9634 29.343C18.8715 31.4011 18.8438 32.053 18.8438 37.2722C18.8438 42.4913 18.8437 43.1581 18.9634 45.2013C18.9955 46.8 19.2968 48.3773 19.8589 49.8755C20.3545 51.1531 21.1111 52.3132 22.0805 53.2818C23.0498 54.2504 24.2105 55.0061 25.4885 55.5007C26.979 56.0846 28.5583 56.4099 30.1583 56.4625C32.2165 56.5544 32.8684 56.5822 38.0875 56.5822C43.3067 56.5822 43.9756 56.5822 46.0167 56.4625C47.6136 56.4311 49.1934 56.1282 50.6887 55.567C51.9662 55.0713 53.1263 54.3149 54.0952 53.3461C55.0641 52.3772 55.8204 51.217 56.3161 49.9396C56.8782 48.4436 57.1796 46.8663 57.2116 45.2655C57.3035 43.2094 57.3313 42.5576 57.3313 37.3363C57.327 32.1171 57.327 31.4546 57.2073 29.4092ZM38.0726 47.142C32.614 47.142 28.1921 42.72 28.1921 37.2615C28.1921 31.8029 32.614 27.381 38.0726 27.381C40.693 27.381 43.2062 28.422 45.0591 30.2749C46.9121 32.1279 47.9531 34.641 47.9531 37.2615C47.9531 39.8819 46.9121 42.3951 45.0591 44.248C43.2062 46.101 40.693 47.142 38.0726 47.142ZM48.3463 29.3195C48.0437 29.3197 47.744 29.2603 47.4643 29.1447C47.1846 29.029 46.9305 28.8593 46.7166 28.6453C46.5026 28.4313 46.3329 28.1772 46.2172 27.8975C46.1015 27.6179 46.0421 27.3181 46.0424 27.0155C46.0424 26.7131 46.1019 26.4136 46.2177 26.1342C46.3334 25.8548 46.503 25.601 46.7169 25.3871C46.9307 25.1733 47.1846 25.0037 47.464 24.8879C47.7434 24.7722 48.0428 24.7126 48.3452 24.7126C48.6477 24.7126 48.9471 24.7722 49.2265 24.8879C49.5059 25.0037 49.7598 25.1733 49.9736 25.3871C50.1875 25.601 50.3571 25.8548 50.4728 26.1342C50.5886 26.4136 50.6481 26.7131 50.6481 27.0155C50.6481 28.2893 49.618 29.3195 48.3463 29.3195Z" fill="#004B40"/>
<path d="M38.0744 43.6776C41.6191 43.6776 44.4926 40.8041 44.4926 37.2595C44.4926 33.7148 41.6191 30.8413 38.0744 30.8413C34.5298 30.8413 31.6562 33.7148 31.6562 37.2595C31.6562 40.8041 34.5298 43.6776 38.0744 43.6776Z" fill="#004B40"/>
</svg>
