<svg width="41" height="41" viewBox="0 0 41 41" fill="none" xmlns="http://www.w3.org/2000/svg">
<circle cx="20.4403" cy="20.78" r="19.2125" stroke="white" stroke-width="1.15863"/>
<path d="M20.4438 20.2179C19.6973 20.2179 18.9814 19.9214 18.4535 19.3935C17.9256 18.8656 17.6291 18.1497 17.6291 17.4032C17.6291 16.6567 17.9256 15.9407 18.4535 15.4128C18.9814 14.885 19.6973 14.5884 20.4438 14.5884C21.1903 14.5884 21.9063 14.885 22.4342 15.4128C22.962 15.9407 23.2586 16.6567 23.2586 17.4032C23.2586 17.7728 23.1858 18.1388 23.0443 18.4803C22.9029 18.8218 22.6955 19.1321 22.4342 19.3935C22.1728 19.6549 21.8625 19.8622 21.521 20.0037C21.1795 20.1451 20.8135 20.2179 20.4438 20.2179ZM20.4438 9.52185C18.3536 9.52185 16.3489 10.3522 14.8709 11.8302C13.3929 13.3083 12.5625 15.3129 12.5625 17.4032C12.5625 23.3142 20.4438 32.0399 20.4438 32.0399C20.4438 32.0399 28.3252 23.3142 28.3252 17.4032C28.3252 15.3129 27.4948 13.3083 26.0168 11.8302C24.5387 10.3522 22.5341 9.52185 20.4438 9.52185Z" fill="white"/>
</svg>
