<svg width="28" height="27" viewBox="0 0 28 27" fill="none" xmlns="http://www.w3.org/2000/svg">
<g clip-path="url(#clip0_74_66343)">
<path d="M13.9392 22.6171C13.6968 22.6172 13.4572 22.5651 13.2368 22.4644C13.0163 22.3636 12.8202 22.2165 12.6617 22.0331L11.6642 20.8785C11.6614 20.8752 11.6585 20.8719 11.6559 20.8684C11.6361 20.8433 11.6109 20.823 11.5821 20.8092C11.5533 20.7954 11.5217 20.7884 11.4897 20.7888H1.1207C1.03844 20.7888 0.959554 20.7561 0.901389 20.6979C0.843224 20.6398 0.810547 20.5609 0.810547 20.4786V6.78246C0.810547 6.7002 0.843224 6.62131 0.901389 6.56314C0.959554 6.50498 1.03844 6.4723 1.1207 6.4723H2.68873C2.72999 6.47145 2.771 6.47884 2.80937 6.49404C2.84774 6.50924 2.88269 6.53194 2.91217 6.56082C2.94166 6.5897 2.96508 6.62417 2.98107 6.66222C2.99706 6.70026 3.0053 6.74112 3.0053 6.78239C3.0053 6.82366 2.99706 6.86451 2.98107 6.90256C2.96508 6.94061 2.94166 6.97508 2.91217 7.00396C2.88269 7.03284 2.84774 7.05554 2.80937 7.07074C2.771 7.08594 2.72999 7.09333 2.68873 7.09248H1.43086V20.1691H11.4897C11.614 20.1688 11.7368 20.1965 11.8489 20.2501C11.9611 20.3037 12.0597 20.3819 12.1375 20.4789L13.131 21.6286C13.2313 21.7446 13.3554 21.8377 13.4948 21.9015C13.6343 21.9653 13.7859 21.9983 13.9392 21.9983C14.0926 21.9983 14.2442 21.9653 14.3836 21.9015C14.5231 21.8377 14.6472 21.7446 14.7475 21.6286L15.741 20.4788C15.8188 20.3818 15.9174 20.3036 16.0295 20.25C16.1417 20.1964 16.2644 20.1688 16.3887 20.1691H26.4476V7.09088H25.1897C25.1485 7.09174 25.1074 7.08435 25.0691 7.06915C25.0307 7.05395 24.9958 7.03124 24.9663 7.00237C24.9368 6.97349 24.9134 6.93901 24.8974 6.90097C24.8814 6.86292 24.8731 6.82207 24.8731 6.7808C24.8731 6.73953 24.8814 6.69867 24.8974 6.66063C24.9134 6.62258 24.9368 6.58811 24.9663 6.55923C24.9958 6.53035 25.0307 6.50764 25.0691 6.49244C25.1074 6.47724 25.1485 6.46985 25.1897 6.47071H26.7577C26.84 6.47071 26.9189 6.50339 26.9771 6.56155C27.0352 6.61972 27.0679 6.6986 27.0679 6.78086V20.4777C27.0679 20.5599 27.0352 20.6388 26.9771 20.697C26.9189 20.7552 26.84 20.7878 26.7577 20.7878H16.3887C16.3568 20.7875 16.3252 20.7945 16.2964 20.8083C16.2676 20.8221 16.2423 20.8423 16.2226 20.8675C16.2199 20.8709 16.217 20.8742 16.2142 20.8776L15.2169 22.0322C15.0584 22.2157 14.8623 22.363 14.6418 22.4639C14.4213 22.5649 14.1817 22.6171 13.9392 22.6171Z" fill="#004B40"/>
<path d="M13.9415 21.0346C13.8948 21.0346 13.8487 21.024 13.8067 21.0037C13.7646 20.9834 13.7277 20.9539 13.6986 20.9173L12.8867 19.8942C12.7204 19.6836 12.5085 19.5135 12.2669 19.3968C12.0253 19.28 11.7603 19.2197 11.492 19.2204H2.69101C2.60877 19.2203 2.5299 19.1877 2.47174 19.1295C2.41358 19.0713 2.38089 18.9925 2.38086 18.9102V4.69303C2.38086 4.61077 2.41354 4.53188 2.4717 4.47372C2.52987 4.41555 2.60876 4.38287 2.69101 4.38287H11.4689C12.5439 4.38287 13.4782 4.99535 13.9415 5.88958C14.4048 4.99535 15.3393 4.38287 16.414 4.38287H25.192C25.2743 4.38287 25.3532 4.41555 25.4113 4.47372C25.4695 4.53188 25.5022 4.61077 25.5022 4.69303V18.9105C25.5021 18.9927 25.4694 19.0716 25.4113 19.1298C25.3531 19.1879 25.2743 19.2206 25.192 19.2206H16.391C16.1227 19.22 15.8578 19.2802 15.6162 19.3969C15.3746 19.5136 15.1626 19.6836 14.9963 19.8942L14.1844 20.9173C14.1553 20.9539 14.1184 20.9834 14.0764 21.0037C14.0343 21.024 13.9882 21.0346 13.9415 21.0346ZM3.00117 18.6003H11.492C11.8538 18.5994 12.211 18.6807 12.5368 18.838C12.8625 18.9954 13.1483 19.2247 13.3724 19.5086L13.9415 20.2253L14.5106 19.5086C14.7348 19.2247 15.0205 18.9954 15.3463 18.838C15.672 18.6807 16.0293 18.5994 16.391 18.6003H24.8818V5.00318H16.4146C15.2223 5.00318 14.2523 5.97319 14.2523 7.1655V18.9108C14.2523 18.993 14.2197 19.0719 14.1615 19.1301C14.1033 19.1882 14.0244 19.2209 13.9422 19.2209C13.8599 19.2209 13.781 19.1882 13.7229 19.1301C13.6647 19.0719 13.632 18.993 13.632 18.9108V7.1655C13.632 5.97319 12.662 5.00318 11.4696 5.00318H3.00236L3.00117 18.6003Z" fill="white"/>
<path d="M13.9391 21.0342C13.8568 21.0342 13.7779 21.0015 13.7197 20.9434C13.6616 20.8852 13.6289 20.8063 13.6289 20.7241V18.5725C13.6289 18.4902 13.6616 18.4113 13.7197 18.3532C13.7779 18.295 13.8568 18.2623 13.9391 18.2623C14.0213 18.2623 14.1002 18.295 14.1584 18.3532C14.2165 18.4113 14.2492 18.4902 14.2492 18.5725V20.7241C14.2492 20.7648 14.2412 20.8051 14.2256 20.8427C14.21 20.8804 14.1872 20.9146 14.1584 20.9434C14.1296 20.9722 14.0954 20.995 14.0578 21.0106C14.0201 21.0262 13.9798 21.0342 13.9391 21.0342Z" fill="white"/>
<path d="M13.9699 7.09088H13.9103C13.8691 7.09174 13.828 7.08435 13.7897 7.06915C13.7513 7.05395 13.7164 7.03124 13.6869 7.00237C13.6574 6.97349 13.634 6.93901 13.618 6.90097C13.602 6.86292 13.5938 6.82207 13.5938 6.7808C13.5938 6.73953 13.602 6.69867 13.618 6.66063C13.634 6.62258 13.6574 6.58811 13.6869 6.55923C13.7164 6.53035 13.7513 6.50764 13.7897 6.49244C13.828 6.47724 13.8691 6.46985 13.9103 6.47071H13.9699C14.051 6.47239 14.1283 6.50579 14.1851 6.56376C14.2418 6.62173 14.2736 6.69965 14.2736 6.7808C14.2736 6.86194 14.2418 6.93986 14.1851 6.99783C14.1283 7.0558 14.051 7.08921 13.9699 7.09088Z" fill="white"/>
<path d="M13.9415 21.0346C13.8948 21.0346 13.8487 21.024 13.8067 21.0037C13.7646 20.9834 13.7277 20.9539 13.6986 20.9173L12.8867 19.8942C12.7204 19.6836 12.5085 19.5135 12.2669 19.3968C12.0253 19.28 11.7603 19.2197 11.492 19.2204H2.69101C2.60877 19.2203 2.5299 19.1877 2.47174 19.1295C2.41358 19.0713 2.38089 18.9925 2.38086 18.9102V4.69303C2.38086 4.61077 2.41354 4.53188 2.4717 4.47372C2.52987 4.41555 2.60876 4.38287 2.69101 4.38287H11.4689C12.5439 4.38287 13.4782 4.99535 13.9415 5.88958C14.4048 4.99535 15.3393 4.38287 16.414 4.38287H25.192C25.2743 4.38287 25.3532 4.41555 25.4113 4.47372C25.4695 4.53188 25.5022 4.61077 25.5022 4.69303V18.9105C25.5021 18.9927 25.4694 19.0716 25.4113 19.1298C25.3531 19.1879 25.2743 19.2206 25.192 19.2206H16.391C16.1227 19.22 15.8578 19.2802 15.6162 19.3969C15.3746 19.5136 15.1626 19.6836 14.9963 19.8942L14.1844 20.9173C14.1553 20.9539 14.1184 20.9834 14.0764 21.0037C14.0343 21.024 13.9882 21.0346 13.9415 21.0346ZM3.00117 18.6003H11.492C11.8538 18.5994 12.211 18.6807 12.5368 18.838C12.8625 18.9954 13.1483 19.2247 13.3724 19.5086L13.9415 20.2253L14.5106 19.5086C14.7348 19.2247 15.0205 18.9954 15.3463 18.838C15.672 18.6807 16.0293 18.5994 16.391 18.6003H24.8818V5.00318H16.4146C15.2223 5.00318 14.2523 5.97319 14.2523 7.1655V18.9108C14.2523 18.993 14.2197 19.0719 14.1615 19.1301C14.1033 19.1882 14.0244 19.2209 13.9422 19.2209C13.8599 19.2209 13.781 19.1882 13.7229 19.1301C13.6647 19.0719 13.632 18.993 13.632 18.9108V7.1655C13.632 5.97319 12.662 5.00318 11.4696 5.00318H3.00236L3.00117 18.6003Z" fill="white"/>
<path d="M13.9415 21.0346C13.8948 21.0346 13.8487 21.024 13.8067 21.0037C13.7646 20.9834 13.7277 20.9539 13.6986 20.9173L12.8867 19.8942C12.7204 19.6836 12.5085 19.5135 12.2669 19.3968C12.0253 19.28 11.7603 19.2197 11.492 19.2204H2.69101C2.60877 19.2203 2.5299 19.1877 2.47174 19.1295C2.41358 19.0713 2.38089 18.9925 2.38086 18.9102V4.69303C2.38086 4.61077 2.41354 4.53188 2.4717 4.47372C2.52987 4.41555 2.60876 4.38287 2.69101 4.38287H11.4689C12.5439 4.38287 13.4782 4.99535 13.9415 5.88958C14.4048 4.99535 15.3393 4.38287 16.414 4.38287H25.192C25.2743 4.38287 25.3532 4.41555 25.4113 4.47372C25.4695 4.53188 25.5022 4.61077 25.5022 4.69303V18.9105C25.5021 18.9927 25.4694 19.0716 25.4113 19.1298C25.3531 19.1879 25.2743 19.2206 25.192 19.2206H16.391C16.1227 19.22 15.8578 19.2802 15.6162 19.3969C15.3746 19.5136 15.1626 19.6836 14.9963 19.8942L14.1844 20.9173C14.1553 20.9539 14.1184 20.9834 14.0764 21.0037C14.0343 21.024 13.9882 21.0346 13.9415 21.0346ZM3.00117 18.6003H11.492C11.8538 18.5994 12.211 18.6807 12.5368 18.838C12.8625 18.9954 13.1483 19.2247 13.3724 19.5086L13.9415 20.2253L14.5106 19.5086C14.7348 19.2247 15.0205 18.9954 15.3463 18.838C15.672 18.6807 16.0293 18.5994 16.391 18.6003H24.8818V5.00318H16.4146C15.2223 5.00318 14.2523 5.97319 14.2523 7.1655V18.9108C14.2523 18.993 14.2197 19.0719 14.1615 19.1301C14.1033 19.1882 14.0244 19.2209 13.9422 19.2209C13.8599 19.2209 13.781 19.1882 13.7229 19.1301C13.6647 19.0719 13.632 18.993 13.632 18.9108V7.1655C13.632 5.97319 12.662 5.00318 11.4696 5.00318H3.00236L3.00117 18.6003Z" fill="#004B40"/>
<path d="M13.9391 21.0342C13.8568 21.0342 13.7779 21.0015 13.7197 20.9434C13.6616 20.8852 13.6289 20.8063 13.6289 20.7241V18.5725C13.6289 18.4902 13.6616 18.4113 13.7197 18.3532C13.7779 18.295 13.8568 18.2623 13.9391 18.2623C14.0213 18.2623 14.1002 18.295 14.1584 18.3532C14.2165 18.4113 14.2492 18.4902 14.2492 18.5725V20.7241C14.2492 20.7648 14.2412 20.8051 14.2256 20.8427C14.21 20.8804 14.1872 20.9146 14.1584 20.9434C14.1296 20.9722 14.0954 20.995 14.0578 21.0106C14.0201 21.0262 13.9798 21.0342 13.9391 21.0342Z" fill="#004B40"/>
<path d="M11.6201 7.34882H5.03867C4.95641 7.34882 4.87752 7.31615 4.81936 7.25798C4.76119 7.19982 4.72852 7.12093 4.72852 7.03867C4.72852 6.95641 4.76119 6.87752 4.81936 6.81936C4.87752 6.76119 4.95641 6.72852 5.03867 6.72852H11.6201C11.7024 6.72852 11.7813 6.76119 11.8394 6.81936C11.8976 6.87752 11.9303 6.95641 11.9303 7.03867C11.9303 7.12093 11.8976 7.19982 11.8394 7.25798C11.7813 7.31615 11.7024 7.34882 11.6201 7.34882Z" fill="#004B40"/>
<path d="M11.6207 9.25305H5.03923C4.99796 9.25391 4.95695 9.24652 4.91858 9.23132C4.88021 9.21612 4.84526 9.19341 4.81578 9.16454C4.7863 9.13566 4.76287 9.10118 4.74688 9.06314C4.73089 9.02509 4.72266 8.98424 4.72266 8.94297C4.72266 8.9017 4.73089 8.86084 4.74688 8.8228C4.76287 8.78475 4.7863 8.75028 4.81578 8.7214C4.84526 8.69252 4.88021 8.66981 4.91858 8.65461C4.95695 8.63941 4.99796 8.63203 5.03923 8.63288H11.6207C11.6619 8.63203 11.703 8.63941 11.7413 8.65461C11.7797 8.66981 11.8146 8.69252 11.8441 8.7214C11.8736 8.75028 11.897 8.78475 11.913 8.8228C11.929 8.86084 11.9373 8.9017 11.9373 8.94297C11.9373 8.98424 11.929 9.02509 11.913 9.06314C11.897 9.10118 11.8736 9.13566 11.8441 9.16454C11.8146 9.19341 11.7797 9.21612 11.7413 9.23132C11.703 9.24652 11.6619 9.25391 11.6207 9.25305Z" fill="#004B40"/>
<path d="M11.6201 11.1591H5.03867C4.95641 11.1591 4.87752 11.1264 4.81936 11.0682C4.76119 11.0101 4.72852 10.9312 4.72852 10.8489C4.72852 10.7667 4.76119 10.6878 4.81936 10.6296C4.87752 10.5714 4.95641 10.5388 5.03867 10.5388H11.6201C11.7024 10.5388 11.7813 10.5714 11.8394 10.6296C11.8976 10.6878 11.9303 10.7667 11.9303 10.8489C11.9303 10.9312 11.8976 11.0101 11.8394 11.0682C11.7813 11.1264 11.7024 11.1591 11.6201 11.1591Z" fill="#004B40"/>
<path d="M11.6207 13.0649H5.03923C4.99796 13.0658 4.95695 13.0584 4.91858 13.0432C4.88021 13.028 4.84526 13.0053 4.81578 12.9764C4.7863 12.9475 4.76287 12.9131 4.74688 12.875C4.73089 12.837 4.72266 12.7961 4.72266 12.7549C4.72266 12.7136 4.73089 12.6727 4.74688 12.6347C4.76287 12.5966 4.7863 12.5622 4.81578 12.5333C4.84526 12.5044 4.88021 12.4817 4.91858 12.4665C4.95695 12.4513 4.99796 12.4439 5.03923 12.4448H11.6207C11.6619 12.4439 11.703 12.4513 11.7413 12.4665C11.7797 12.4817 11.8146 12.5044 11.8441 12.5333C11.8736 12.5622 11.897 12.5966 11.913 12.6347C11.929 12.6727 11.9373 12.7136 11.9373 12.7549C11.9373 12.7961 11.929 12.837 11.913 12.875C11.897 12.9131 11.8736 12.9475 11.8441 12.9764C11.8146 13.0053 11.7797 13.028 11.7413 13.0432C11.703 13.0584 11.6619 13.0658 11.6207 13.0649Z" fill="#004B40"/>
<path d="M11.6201 14.9692H5.03867C4.95641 14.9692 4.87752 14.9366 4.81936 14.8784C4.76119 14.8202 4.72852 14.7414 4.72852 14.6591C4.72852 14.5768 4.76119 14.4979 4.81936 14.4398C4.87752 14.3816 4.95641 14.3489 5.03867 14.3489H11.6201C11.7024 14.3489 11.7813 14.3816 11.8394 14.4398C11.8976 14.4979 11.9303 14.5768 11.9303 14.6591C11.9303 14.7414 11.8976 14.8202 11.8394 14.8784C11.7813 14.9366 11.7024 14.9692 11.6201 14.9692Z" fill="#004B40"/>
<path d="M11.6201 16.8744H5.03867C4.95641 16.8744 4.87752 16.8417 4.81936 16.7836C4.76119 16.7254 4.72852 16.6465 4.72852 16.5642C4.72852 16.482 4.76119 16.4031 4.81936 16.3449C4.87752 16.2868 4.95641 16.2541 5.03867 16.2541H11.6201C11.7024 16.2541 11.7813 16.2868 11.8394 16.3449C11.8976 16.4031 11.9303 16.482 11.9303 16.5642C11.9303 16.6465 11.8976 16.7254 11.8394 16.7836C11.7813 16.8417 11.7024 16.8744 11.6201 16.8744Z" fill="#004B40"/>
</g>
<defs>
<clipPath id="clip0_74_66343">
<rect width="26.5429" height="26.5429" fill="white" transform="translate(0.667969 0.228516)"/>
</clipPath>
</defs>
</svg>
