<svg width="40" height="41" viewBox="0 0 40 41" fill="none" xmlns="http://www.w3.org/2000/svg">
<circle cx="19.909" cy="20.7807" r="19.2125" stroke="white" stroke-width="1.15864"/>
<path d="M13.5023 19.3387C15.2186 22.7118 17.9839 25.4651 21.357 27.1934L23.9792 24.5712C24.3011 24.2494 24.7778 24.1421 25.195 24.2851C26.5299 24.7261 27.9722 24.9645 29.4502 24.9645C30.1057 24.9645 30.6421 25.5009 30.6421 26.1564V30.3162C30.6421 30.9718 30.1057 31.5082 29.4502 31.5082C18.258 31.5082 9.1875 22.4376 9.1875 11.2455C9.1875 10.59 9.72386 10.0536 10.3794 10.0536H14.5511C15.2067 10.0536 15.7431 10.59 15.7431 11.2455C15.7431 12.7354 15.9814 14.1657 16.4225 15.5007C16.5536 15.9178 16.4582 16.3827 16.1245 16.7164L13.5023 19.3387Z" fill="white"/>
</svg>
