<svg width="231" height="187" viewBox="0 0 231 187" fill="none" xmlns="http://www.w3.org/2000/svg">
<path d="M28.688 0.172363C28.688 0.172363 28.5305 2.21938 26.5623 2.45557C28.5305 2.69177 28.688 4.73878 28.688 4.73878C28.688 4.73878 28.8455 2.69177 30.8137 2.45557C28.8455 2.29811 28.688 0.172363 28.688 0.172363Z" fill="#F5CD87"/>
<path d="M134.188 32.4518C134.188 32.4518 134.031 34.4988 132.062 34.735C134.031 34.9712 134.188 37.0182 134.188 37.0182C134.188 37.0182 134.345 34.9712 136.314 34.735C134.345 34.5775 134.188 32.4518 134.188 32.4518Z" fill="#F5CD87"/>
<path d="M57.0313 24.5792C57.0313 24.5792 56.8738 26.6262 54.9055 26.8624C56.8738 27.0986 57.0313 29.1456 57.0313 29.1456C57.0313 29.1456 57.1887 27.0986 59.157 26.8624C57.1887 26.705 57.0313 24.5792 57.0313 24.5792Z" fill="#F5CD87"/>
<path d="M230.24 78.9036C230.24 78.9036 230.083 80.9506 228.115 81.1868C230.083 81.423 230.24 83.47 230.24 83.47C230.24 83.47 230.398 81.423 232.366 81.1868C230.319 81.0293 230.24 78.9036 230.24 78.9036Z" fill="#F5CD87"/>
<path d="M185.873 167.283C185.873 167.283 185.716 169.33 183.747 169.566C185.716 169.802 185.873 171.849 185.873 171.849C185.873 171.849 186.031 169.802 187.999 169.566C185.952 169.409 185.873 167.283 185.873 167.283Z" fill="#F5CD87"/>
<path d="M194.144 45.233C194.144 45.233 193.751 50.7442 188.554 51.2166C193.751 51.7677 194.144 57.2002 194.144 57.2002C194.144 57.2002 194.538 51.689 199.734 51.2166C194.538 50.7442 194.144 45.233 194.144 45.233Z" fill="#F5CD87"/>
<path d="M6.17074 46.3876C6.17074 46.3876 5.77708 51.8988 0.580811 52.3712C5.77708 52.9223 6.17074 58.3548 6.17074 58.3548C6.17074 58.3548 6.5644 52.8436 11.7607 52.3712C6.5644 51.8988 6.17074 46.3876 6.17074 46.3876Z" fill="#F5CD87"/>
<path d="M98.3653 0.172363C98.3653 0.172363 98.0503 4.18767 94.2712 4.58132C98.0503 4.97498 98.3653 8.99028 98.3653 8.99028C98.3653 8.99028 98.6802 4.97498 102.459 4.58132C98.6802 4.10893 98.3653 0.172363 98.3653 0.172363Z" fill="#F5CD87"/>
<path d="M40.419 74.9673C40.419 74.9673 40.1828 78.5102 36.7974 78.9039C40.1828 79.2188 40.419 82.8404 40.419 82.8404C40.419 82.8404 40.6552 79.2975 44.0407 78.9039C40.7339 78.5102 40.419 74.9673 40.419 74.9673Z" fill="#F5CD87"/>
<path d="M36.439 178.922C36.439 178.922 36.2028 182.465 32.8174 182.859C36.2028 183.174 36.439 186.795 36.439 186.795C36.439 186.795 36.6752 183.252 40.0607 182.859C36.6752 182.465 36.439 178.922 36.439 178.922Z" fill="#F5CD87"/>
</svg>
