<svg width="25" height="25" viewBox="0 0 25 25" fill="none" xmlns="http://www.w3.org/2000/svg">
<g clip-path="url(#clip0_15_11652)">
<path d="M12.6835 24.5688C19.2828 24.5688 24.6326 19.219 24.6326 12.6197C24.6326 6.02036 19.2828 0.670555 12.6835 0.670555C6.08418 0.670555 0.734375 6.02036 0.734375 12.6197C0.734375 19.219 6.08418 24.5688 12.6835 24.5688Z" fill="#F0F0F0"/>
<path d="M12.1636 12.6197H24.6322C24.6322 11.5412 24.4884 10.4964 24.2206 9.50249H12.1636V12.6197Z" fill="#D80027"/>
<path d="M12.1636 6.38475H22.8784C22.1469 5.19114 21.2117 4.13612 20.1212 3.26757H12.1636V6.38475Z" fill="#D80027"/>
<path d="M12.6833 24.5688C15.4955 24.5688 18.0802 23.5968 20.1214 21.9712H5.24512C7.28627 23.5968 9.87106 24.5688 12.6833 24.5688Z" fill="#D80027"/>
<path d="M2.48793 18.853H22.8785C23.4658 17.8948 23.9212 16.8474 24.2207 15.7359H1.14575C1.44527 16.8474 1.90069 17.8948 2.48793 18.853Z" fill="#D80027"/>
<path d="M6.26943 2.53658H7.35834L6.34547 3.27243L6.73236 4.46309L5.71954 3.72724L4.70671 4.46309L5.04091 3.43449C4.14912 4.17734 3.36747 5.04767 2.72334 6.01741H3.07225L2.42751 6.48581C2.32706 6.65338 2.23072 6.8236 2.1384 6.99635L2.44627 7.94393L1.87187 7.52659C1.72909 7.8291 1.59849 8.13843 1.4811 8.45419L1.8203 9.49825H3.07225L2.05937 10.2341L2.44627 11.4248L1.43345 10.6889L0.826747 11.1297C0.766021 11.6179 0.734375 12.1151 0.734375 12.6197H12.6835C12.6835 6.0204 12.6835 5.2424 12.6835 0.670555C10.323 0.670555 8.12252 1.3553 6.26943 2.53658ZM6.73236 11.4248L5.71954 10.6889L4.70671 11.4248L5.09361 10.2341L4.08073 9.49825H5.33268L5.71954 8.30758L6.10639 9.49825H7.35834L6.34547 10.2341L6.73236 11.4248ZM6.34547 6.75326L6.73236 7.94393L5.71954 7.20808L4.70671 7.94393L5.09361 6.75326L4.08073 6.01741H5.33268L5.71954 4.82675L6.10639 6.01741H7.35834L6.34547 6.75326ZM11.0185 11.4248L10.0056 10.6889L8.9928 11.4248L9.3797 10.2341L8.36683 9.49825H9.61878L10.0056 8.30758L10.3925 9.49825H11.6444L10.6316 10.2341L11.0185 11.4248ZM10.6316 6.75326L11.0185 7.94393L10.0056 7.20808L8.9928 7.94393L9.3797 6.75326L8.36683 6.01741H9.61878L10.0056 4.82675L10.3925 6.01741H11.6444L10.6316 6.75326ZM10.6316 3.27243L11.0185 4.46309L10.0056 3.72724L8.9928 4.46309L9.3797 3.27243L8.36683 2.53658H9.61878L10.0056 1.34591L10.3925 2.53658H11.6444L10.6316 3.27243Z" fill="#0052B4"/>
</g>
<defs>
<clipPath id="clip0_15_11652">
<rect width="23.8982" height="23.8982" fill="white" transform="translate(0.734375 0.670555)"/>
</clipPath>
</defs>
</svg>
