<svg width="76" height="75" viewBox="0 0 76 75" fill="none" xmlns="http://www.w3.org/2000/svg">
<path d="M37.9141 0.989258C57.9707 0.989266 74.2295 17.248 74.2295 37.3047C74.2295 57.3613 57.9707 73.6201 37.9141 73.6201C17.8574 73.6201 1.59864 57.3613 1.59863 37.3047C1.59863 17.248 17.8574 0.989258 37.9141 0.989258Z" stroke="#004B40" stroke-width="1.97778"/>
<path d="M52.0849 23.0535C50.2418 21.1924 48.0468 19.7167 45.6276 18.7125C43.2085 17.7082 40.6137 17.1955 37.9945 17.2042C27.0196 17.2042 18.0749 26.1489 18.0749 37.1238C18.0749 40.6414 18.9995 44.0585 20.7281 47.0736L17.9141 57.4052L28.4668 54.6313C31.3814 56.2193 34.6578 57.0635 37.9945 57.0635C48.9693 57.0635 57.9141 48.1188 57.9141 37.1439C57.9141 31.8173 55.8437 26.8123 52.0849 23.0535ZM37.9945 53.6866C35.0196 53.6866 32.105 52.8826 29.5523 51.3751L28.9492 51.0133L22.6779 52.6615L24.3462 46.5509L23.9442 45.9278C22.291 43.2887 21.4134 40.2379 21.4115 37.1238C21.4115 27.9982 28.8487 20.561 37.9744 20.561C42.3965 20.561 46.5573 22.2896 49.6729 25.4253C51.2158 26.9607 52.4385 28.7872 53.2701 30.7988C54.1017 32.8105 54.5255 34.9672 54.5171 37.1439C54.5573 46.2695 47.1201 53.6866 37.9945 53.6866ZM47.0799 41.3047C46.5774 41.0635 44.1251 39.8575 43.6829 39.6766C43.2206 39.5158 42.899 39.4354 42.5573 39.9178C42.2156 40.4203 41.2708 41.5459 40.9894 41.8675C40.708 42.2092 40.4065 42.2494 39.904 41.9881C39.4015 41.7469 37.7935 41.2042 35.904 39.5158C34.4166 38.1891 33.4316 36.561 33.1301 36.0585C32.8487 35.556 33.0899 35.2947 33.3512 35.0334C33.5724 34.8123 33.8538 34.4504 34.095 34.169C34.3362 33.8876 34.4367 33.6665 34.5975 33.3449C34.7583 33.0032 34.6779 32.7218 34.5573 32.4806C34.4367 32.2394 33.4316 29.7871 33.0296 28.7821C32.6276 27.8173 32.2055 27.9379 31.904 27.9178H30.9392C30.5975 27.9178 30.0749 28.0384 29.6126 28.5409C29.1703 29.0434 27.8839 30.2494 27.8839 32.7017C27.8839 35.154 29.6729 37.5258 29.9141 37.8474C30.1553 38.1891 33.4316 43.2143 38.4166 45.365C39.6025 45.8876 40.5271 46.1891 41.2507 46.4102C42.4367 46.7922 43.5221 46.7318 44.3864 46.6112C45.3512 46.4705 47.3412 45.4052 47.7432 44.2394C48.1653 43.0736 48.1653 42.0886 48.0246 41.8675C47.8839 41.6464 47.5824 41.5459 47.0799 41.3047Z" fill="#004B40"/>
</svg>
