<svg width="76" height="75" viewBox="0 0 76 75" fill="none" xmlns="http://www.w3.org/2000/svg">
<path d="M57.6046 24.9927C56.1436 25.6401 54.574 26.0775 52.924 26.2753C54.6265 25.2566 55.9002 23.6532 56.5075 21.7644C54.908 22.7145 53.1574 23.3833 51.3318 23.7416C50.1041 22.4309 48.4781 21.562 46.706 21.2701C44.934 20.9781 43.1152 21.2794 41.5319 22.1271C39.9486 22.9748 38.6895 24.3214 37.95 25.958C37.2106 27.5947 37.0321 29.4296 37.4423 31.178C34.2013 31.0153 31.0306 30.1729 28.1362 28.7055C25.2418 27.2381 22.6883 25.1785 20.6413 22.6603C19.9414 23.8676 19.539 25.2674 19.539 26.7582C19.5382 28.1002 19.8687 29.4217 20.5011 30.6054C21.1336 31.7891 22.0484 32.7984 23.1645 33.5437C21.8701 33.5025 20.6044 33.1528 19.4725 32.5236V32.6286C19.4724 34.5108 20.1235 36.3352 21.3153 37.7921C22.5071 39.2489 24.1663 40.2486 26.0113 40.6214C24.8106 40.9463 23.5517 40.9942 22.3298 40.7614C22.8504 42.3809 23.8644 43.7972 25.2298 44.8119C26.5952 45.8266 28.2438 46.3888 29.9447 46.42C27.0573 48.6867 23.4915 49.9162 19.8207 49.9108C19.1705 49.9109 18.5208 49.873 17.875 49.797C21.601 52.1927 25.9384 53.4642 30.3681 53.4592C45.3634 53.4592 53.5609 41.0396 53.5609 30.2682C53.5609 29.9182 53.5522 29.5648 53.5365 29.2148C55.131 28.0617 56.5074 26.6338 57.6011 24.998L57.6046 24.9927Z" fill="#004B40"/>
<path d="M37.7422 0.989258C57.7988 0.989266 74.0576 17.248 74.0576 37.3047C74.0576 57.3613 57.7988 73.6201 37.7422 73.6201C17.6855 73.6201 1.42676 57.3613 1.42676 37.3047C1.42676 17.248 17.6855 0.989258 37.7422 0.989258Z" stroke="#004B40" stroke-width="1.97778"/>
</svg>
