<svg width="76" height="75" viewBox="0 0 76 75" fill="none" xmlns="http://www.w3.org/2000/svg">
<path d="M38 0.989258C58.0566 0.989266 74.3154 17.248 74.3154 37.3047C74.3154 57.3613 58.0566 73.6201 38 73.6201C17.9434 73.6201 1.68458 57.3613 1.68457 37.3047C1.68457 17.248 17.9433 0.989258 38 0.989258Z" stroke="#004B40" stroke-width="1.97778"/>
<path d="M34 43.3049L44.38 37.3049L34 31.3049V43.3049ZM57.12 27.6449C57.38 28.5849 57.56 29.8449 57.68 31.4449C57.82 33.0449 57.88 34.4249 57.88 35.6249L58 37.3049C58 41.6849 57.68 44.9049 57.12 46.9649C56.62 48.7649 55.46 49.9249 53.66 50.4249C52.72 50.6849 51 50.8649 48.36 50.9849C45.76 51.1249 43.38 51.1849 41.18 51.1849L38 51.3049C29.62 51.3049 24.4 50.9849 22.34 50.4249C20.54 49.9249 19.38 48.7649 18.88 46.9649C18.62 46.0249 18.44 44.7649 18.32 43.1649C18.18 41.5649 18.12 40.1849 18.12 38.9849L18 37.3049C18 32.9249 18.32 29.7049 18.88 27.6449C19.38 25.8449 20.54 24.6849 22.34 24.1849C23.28 23.9249 25 23.7449 27.64 23.6249C30.24 23.4849 32.62 23.4249 34.82 23.4249L38 23.3049C46.38 23.3049 51.6 23.6249 53.66 24.1849C55.46 24.6849 56.62 25.8449 57.12 27.6449Z" fill="#004B40"/>
</svg>
